<svg width="411" height="137" viewBox="0 0 411 137" fill="none" xmlns="http://www.w3.org/2000/svg">
<g style="mix-blend-mode:luminosity" clip-path="url(#clip0_13402_41347)">
<path opacity="0.16" d="M156.496 11.0918L196.761 11.0918C201.179 11.0918 204.761 14.6735 204.761 19.0918V80.5491C204.761 84.9673 201.179 88.5491 196.761 88.5491L156.496 88.5491" stroke="black"/>
<path opacity="0.16" d="M97.5049 11.0918L109.401 11.0918L156.739 11.0918" stroke="black"/>
<path opacity="0.16" d="M253.026 11.0918L264.923 11.0918L312.261 11.0918" stroke="black"/>
<path opacity="0.16" d="M253.026 11.0918L267.932 11.0918C271.251 11.0918 274.16 13.4362 275.131 16.8921L293.324 81.6805C294.295 85.1363 297.204 87.4807 300.523 87.4807L312.992 87.4807" stroke="black"/>
<g clip-path="url(#clip1_13402_41347)">
<rect y="1.47656" width="97.5052" height="37.9274" rx="2" fill="white"/>
<rect width="97.5052" height="16.5" transform="translate(0 1.47656)" fill="#7C39ED"/>
<rect width="97.5052" height="16.5" transform="translate(0 1.47656)" fill="black" fill-opacity="0.1"/>
<rect opacity="0.2" x="6" y="5.97656" width="44" height="7.5" rx="1" fill="white"/>
<g clip-path="url(#clip2_13402_41347)">
<rect opacity="0.2" x="6.5" y="23.7266" width="20" height="7.5" rx="1" fill="#7033D5"/>
<path opacity="0.5" d="M31.3906 28.6553C31.1826 28.6553 31.0098 28.4824 31.0098 28.2744C31.0098 28.0635 31.1826 27.8936 31.3906 27.8936C31.6016 27.8936 31.7715 28.0635 31.7715 28.2744C31.7715 28.4824 31.6016 28.6553 31.3906 28.6553Z" fill="#7033D5"/>
<rect opacity="0.2" x="36.5" y="23.7266" width="16" height="7.5" rx="1" fill="#7033D5"/>
</g>
</g>
<g clip-path="url(#clip3_13402_41347)">
<rect x="156.496" y="1.47656" width="97.5052" height="37.9274" rx="2" fill="white"/>
<rect width="97.5052" height="16.5" transform="translate(156.496 1.47656)" fill="#7C39ED"/>
<rect width="97.5052" height="16.5" transform="translate(156.496 1.47656)" fill="black" fill-opacity="0.1"/>
<rect opacity="0.2" x="162.496" y="5.97656" width="52" height="7.5" rx="1" fill="white"/>
<g clip-path="url(#clip4_13402_41347)">
<rect opacity="0.2" x="162.996" y="23.7266" width="20" height="7.5" rx="1" fill="#7033D5"/>
<path opacity="0.5" d="M187.887 28.6553C187.679 28.6553 187.506 28.4824 187.506 28.2744C187.506 28.0635 187.679 27.8936 187.887 27.8936C188.098 27.8936 188.268 28.0635 188.268 28.2744C188.268 28.4824 188.098 28.6553 187.887 28.6553Z" fill="#7033D5"/>
<rect opacity="0.2" x="192.996" y="23.7266" width="16" height="7.5" rx="1" fill="#7033D5"/>
</g>
</g>
<g clip-path="url(#clip5_13402_41347)">
<rect x="312.992" y="1.47656" width="97.5052" height="37.9274" rx="2" fill="white"/>
<rect width="97.5052" height="16.5" transform="translate(312.992 1.47656)" fill="#7C39ED"/>
<rect width="97.5052" height="16.5" transform="translate(312.992 1.47656)" fill="black" fill-opacity="0.1"/>
<rect opacity="0.2" x="318.992" y="5.97656" width="32" height="7.5" rx="1" fill="white"/>
<g clip-path="url(#clip6_13402_41347)">
<rect opacity="0.2" x="319.492" y="23.7266" width="20" height="7.5" rx="1" fill="#7033D5"/>
<path opacity="0.5" d="M344.383 28.6553C344.175 28.6553 344.002 28.4824 344.002 28.2744C344.002 28.0635 344.175 27.8936 344.383 27.8936C344.594 27.8936 344.764 28.0635 344.764 28.2744C344.764 28.4824 344.594 28.6553 344.383 28.6553Z" fill="#7033D5"/>
<rect opacity="0.2" x="349.492" y="23.7266" width="16" height="7.5" rx="1" fill="#7033D5"/>
</g>
</g>
<g clip-path="url(#clip7_13402_41347)">
<rect x="312.992" y="78.9336" width="97.5052" height="37.9274" rx="2" fill="white"/>
<rect width="97.5052" height="16.5" transform="translate(312.992 78.9336)" fill="#7C39ED"/>
<rect width="97.5052" height="16.5" transform="translate(312.992 78.9336)" fill="black" fill-opacity="0.1"/>
<rect opacity="0.2" x="318.992" y="83.4336" width="44" height="7.5" rx="1" fill="white"/>
<g clip-path="url(#clip8_13402_41347)">
<rect opacity="0.2" x="319.492" y="101.184" width="20" height="7.5" rx="1" fill="#7033D5"/>
<path opacity="0.5" d="M344.383 106.112C344.175 106.112 344.002 105.939 344.002 105.731C344.002 105.521 344.175 105.351 344.383 105.351C344.594 105.351 344.764 105.521 344.764 105.731C344.764 105.939 344.594 106.112 344.383 106.112Z" fill="#7033D5"/>
<rect opacity="0.2" x="349.492" y="101.184" width="16" height="7.5" rx="1" fill="#7033D5"/>
</g>
</g>
<g clip-path="url(#clip9_13402_41347)">
<rect x="156.496" y="78.9336" width="97.5052" height="57.1581" rx="2" fill="white"/>
<rect width="97.5052" height="16.5" transform="translate(156.496 78.9336)" fill="#7C39ED"/>
<rect width="97.5052" height="16.5" transform="translate(156.496 78.9336)" fill="black" fill-opacity="0.1"/>
<rect opacity="0.2" x="162.496" y="83.4336" width="52" height="7.5" rx="1" fill="white"/>
<g clip-path="url(#clip10_13402_41347)">
<rect opacity="0.2" x="162.996" y="101.184" width="20" height="7.5" rx="1" fill="#7033D5"/>
<path opacity="0.5" d="M187.887 106.112C187.679 106.112 187.506 105.939 187.506 105.731C187.506 105.521 187.679 105.351 187.887 105.351C188.098 105.351 188.268 105.521 188.268 105.731C188.268 105.939 188.098 106.112 187.887 106.112Z" fill="#7033D5"/>
<rect opacity="0.2" x="192.996" y="101.184" width="16" height="7.5" rx="1" fill="#7033D5"/>
</g>
<mask id="path-30-outside-1_13402_41347" maskUnits="userSpaceOnUse" x="156.496" y="113.434" width="98" height="19" fill="black">
<rect fill="white" x="156.496" y="113.434" width="98" height="19"/>
<path d="M156.496 114.434H254.001V132.434H156.496V114.434Z"/>
</mask>
<path d="M156.496 114.434H254.001V132.434H156.496V114.434Z" fill="#FAFAFA"/>
<path d="M156.496 114.934H254.001V113.934H156.496V114.934Z" fill="black" fill-opacity="0.1" mask="url(#path-30-outside-1_13402_41347)"/>
<path d="M163.252 126.624L163.693 127.385C163.785 127.546 163.916 127.672 164.071 127.763L165.646 125.037H162.496C162.496 125.215 162.542 125.392 162.634 125.553L163.252 126.624Z" fill="#0066DA"/>
<path d="M167.496 121.83L165.921 119.104C165.766 119.195 165.635 119.321 165.543 119.482L162.634 124.522C162.544 124.679 162.496 124.856 162.496 125.037H165.646L167.496 121.83Z" fill="#00AC47"/>
<path d="M170.921 127.763C171.076 127.672 171.207 127.546 171.299 127.385L171.482 127.07L172.359 125.553C172.45 125.392 172.496 125.215 172.496 125.037H169.346L170.016 126.354L170.921 127.763Z" fill="#EA4335"/>
<path d="M167.496 121.83L169.071 119.104C168.916 119.012 168.739 118.966 168.555 118.966H166.436C166.253 118.966 166.076 119.018 165.921 119.104L167.496 121.83Z" fill="#00832D"/>
<path d="M169.346 125.037H165.646L164.071 127.763C164.226 127.855 164.403 127.901 164.587 127.901H170.406C170.589 127.901 170.767 127.849 170.921 127.763L169.346 125.037Z" fill="#2684FC"/>
<path d="M170.904 122.002L169.449 119.482C169.357 119.321 169.226 119.195 169.071 119.104L167.496 121.83L169.346 125.037H172.49C172.49 124.86 172.445 124.682 172.353 124.522L170.904 122.002Z" fill="#FFBA00"/>
<path fill-rule="evenodd" clip-rule="evenodd" d="M245.5 120.933C245.5 120.657 245.373 120.612 245.209 120.842L243.146 123.73C243.065 123.842 243.108 123.933 243.248 123.933H244.253C244.39 123.933 244.5 124.041 244.5 124.182V125.934C244.5 126.21 244.628 126.255 244.792 126.025L246.855 123.137C246.935 123.024 246.893 122.933 246.753 122.933H245.748C245.611 122.933 245.5 122.826 245.5 122.685V120.933Z" fill="#CCCCCC"/>
</g>
</g>
<defs>
<clipPath id="clip0_13402_41347">
<rect width="410.497" height="136.092" fill="white"/>
</clipPath>
<clipPath id="clip1_13402_41347">
<rect y="1.47656" width="97.5052" height="37.9274" rx="2" fill="white"/>
</clipPath>
<clipPath id="clip2_13402_41347">
<rect width="46.5" height="9" fill="white" transform="translate(6 22.9766)"/>
</clipPath>
<clipPath id="clip3_13402_41347">
<rect x="156.496" y="1.47656" width="97.5052" height="37.9274" rx="2" fill="white"/>
</clipPath>
<clipPath id="clip4_13402_41347">
<rect width="46.5" height="9" fill="white" transform="translate(162.496 22.9766)"/>
</clipPath>
<clipPath id="clip5_13402_41347">
<rect x="312.992" y="1.47656" width="97.5052" height="37.9274" rx="2" fill="white"/>
</clipPath>
<clipPath id="clip6_13402_41347">
<rect width="46.5" height="9" fill="white" transform="translate(318.992 22.9766)"/>
</clipPath>
<clipPath id="clip7_13402_41347">
<rect x="312.992" y="78.9336" width="97.5052" height="37.9274" rx="2" fill="white"/>
</clipPath>
<clipPath id="clip8_13402_41347">
<rect width="46.5" height="9" fill="white" transform="translate(318.992 100.434)"/>
</clipPath>
<clipPath id="clip9_13402_41347">
<rect x="156.496" y="78.9336" width="97.5052" height="57.1581" rx="2" fill="white"/>
</clipPath>
<clipPath id="clip10_13402_41347">
<rect width="46.5" height="9" fill="white" transform="translate(162.496 100.434)"/>
</clipPath>
</defs>
</svg>
