<svg width="310" height="202" viewBox="0 0 310 202" fill="none" xmlns="http://www.w3.org/2000/svg">
<g style="mix-blend-mode:luminosity" clip-path="url(#clip0_13404_61890)">
<g style="mix-blend-mode:luminosity" opacity="0.1">
<rect width="40" height="40" rx="20" fill="#282828"/>
<rect x="0.5" y="0.5" width="39" height="39" rx="19.5" stroke="black" stroke-opacity="0.2"/>
<path d="M10.25 17.5627H12.6875V23.9377H11C10.8508 23.9377 10.7077 23.997 10.6023 24.1025C10.4968 24.208 10.4375 24.351 10.4375 24.5002C10.4375 24.6494 10.4968 24.7925 10.6023 24.898C10.7077 25.0035 10.8508 25.0627 11 25.0627H29C29.1492 25.0627 29.2923 25.0035 29.3977 24.898C29.5032 24.7925 29.5625 24.6494 29.5625 24.5002C29.5625 24.351 29.5032 24.208 29.3977 24.1025C29.2923 23.997 29.1492 23.9377 29 23.9377H27.3125V17.5627H29.75C29.8724 17.5626 29.9915 17.5226 30.0891 17.4487C30.1867 17.3748 30.2576 17.271 30.2909 17.1532C30.3242 17.0354 30.3181 16.9099 30.2736 16.7958C30.2291 16.6818 30.1487 16.5853 30.0444 16.5212L20.2944 10.5212C20.2058 10.4668 20.1039 10.438 20 10.438C19.8961 10.438 19.7942 10.4668 19.7056 10.5212L9.95563 16.5212C9.85135 16.5853 9.77085 16.6818 9.72637 16.7958C9.68188 16.9099 9.67583 17.0354 9.70913 17.1532C9.74243 17.271 9.81326 17.3748 9.91088 17.4487C10.0085 17.5226 10.1276 17.5626 10.25 17.5627ZM13.8125 17.5627H17.1875V23.9377H13.8125V17.5627ZM21.6875 17.5627V23.9377H18.3125V17.5627H21.6875ZM26.1875 23.9377H22.8125V17.5627H26.1875V23.9377ZM20 11.6565L27.7625 16.4377H12.2375L20 11.6565ZM31.0625 27.5002C31.0625 27.6494 31.0032 27.7925 30.8977 27.898C30.7923 28.0035 30.6492 28.0627 30.5 28.0627H9.5C9.35082 28.0627 9.20774 28.0035 9.10225 27.898C8.99676 27.7925 8.9375 27.6494 8.9375 27.5002C8.9375 27.351 8.99676 27.208 9.10225 27.1025C9.20774 26.997 9.35082 26.9377 9.5 26.9377H30.5C30.6492 26.9377 30.7923 26.997 30.8977 27.1025C31.0032 27.208 31.0625 27.351 31.0625 27.5002Z" fill="#B8B8B8"/>
</g>
<g style="mix-blend-mode:luminosity" opacity="0.1">
<rect x="54" width="40" height="40" rx="20" fill="#282828"/>
<rect x="54.5" y="0.5" width="39" height="39" rx="19.5" stroke="black" stroke-opacity="0.2"/>
<path d="M83 12.6875H65C64.6519 12.6875 64.3181 12.8258 64.0719 13.0719C63.8258 13.3181 63.6875 13.6519 63.6875 14V26C63.6875 26.3481 63.8258 26.6819 64.0719 26.9281C64.3181 27.1742 64.6519 27.3125 65 27.3125H83C83.3481 27.3125 83.6819 27.1742 83.9281 26.9281C84.1742 26.6819 84.3125 26.3481 84.3125 26V14C84.3125 13.6519 84.1742 13.3181 83.9281 13.0719C83.6819 12.8258 83.3481 12.6875 83 12.6875ZM65 13.8125H83C83.0497 13.8125 83.0974 13.8323 83.1326 13.8674C83.1677 13.9026 83.1875 13.9503 83.1875 14V16.4375H64.8125V14C64.8125 13.9503 64.8323 13.9026 64.8674 13.8674C64.9026 13.8323 64.9503 13.8125 65 13.8125ZM83 26.1875H65C64.9503 26.1875 64.9026 26.1677 64.8674 26.1326C64.8323 26.0974 64.8125 26.0497 64.8125 26V17.5625H83.1875V26C83.1875 26.0497 83.1677 26.0974 83.1326 26.1326C83.0974 26.1677 83.0497 26.1875 83 26.1875ZM81.3125 23.75C81.3125 23.8992 81.2532 24.0423 81.1477 24.1477C81.0423 24.2532 80.8992 24.3125 80.75 24.3125H77.75C77.6008 24.3125 77.4577 24.2532 77.3523 24.1477C77.2468 24.0423 77.1875 23.8992 77.1875 23.75C77.1875 23.6008 77.2468 23.4577 77.3523 23.3523C77.4577 23.2468 77.6008 23.1875 77.75 23.1875H80.75C80.8992 23.1875 81.0423 23.2468 81.1477 23.3523C81.2532 23.4577 81.3125 23.6008 81.3125 23.75ZM75.3125 23.75C75.3125 23.8992 75.2532 24.0423 75.1477 24.1477C75.0423 24.2532 74.8992 24.3125 74.75 24.3125H73.25C73.1008 24.3125 72.9577 24.2532 72.8523 24.1477C72.7468 24.0423 72.6875 23.8992 72.6875 23.75C72.6875 23.6008 72.7468 23.4577 72.8523 23.3523C72.9577 23.2468 73.1008 23.1875 73.25 23.1875H74.75C74.8992 23.1875 75.0423 23.2468 75.1477 23.3523C75.2532 23.4577 75.3125 23.6008 75.3125 23.75Z" fill="#B8B8B8"/>
</g>
<g style="mix-blend-mode:luminosity">
<rect x="108.5" y="0.5" width="39" height="39" rx="19.5" fill="#282828"/>
<rect x="108.5" y="0.5" width="39" height="39" rx="19.5" stroke="#BDBDBD"/>
<path d="M118.25 17.5627H120.688V23.9377H119C118.851 23.9377 118.708 23.997 118.602 24.1025C118.497 24.208 118.438 24.351 118.438 24.5002C118.438 24.6494 118.497 24.7925 118.602 24.898C118.708 25.0035 118.851 25.0627 119 25.0627H137C137.149 25.0627 137.292 25.0035 137.398 24.898C137.503 24.7925 137.562 24.6494 137.562 24.5002C137.562 24.351 137.503 24.208 137.398 24.1025C137.292 23.997 137.149 23.9377 137 23.9377H135.312V17.5627H137.75C137.872 17.5626 137.992 17.5226 138.089 17.4487C138.187 17.3748 138.258 17.271 138.291 17.1532C138.324 17.0354 138.318 16.9099 138.274 16.7958C138.229 16.6818 138.149 16.5853 138.044 16.5212L128.294 10.5212C128.206 10.4668 128.104 10.438 128 10.438C127.896 10.438 127.794 10.4668 127.706 10.5212L117.956 16.5212C117.851 16.5853 117.771 16.6818 117.726 16.7958C117.682 16.9099 117.676 17.0354 117.709 17.1532C117.742 17.271 117.813 17.3748 117.911 17.4487C118.008 17.5226 118.128 17.5626 118.25 17.5627ZM121.812 17.5627H125.188V23.9377H121.812V17.5627ZM129.688 17.5627V23.9377H126.312V17.5627H129.688ZM134.188 23.9377H130.812V17.5627H134.188V23.9377ZM128 11.6565L135.763 16.4377H120.238L128 11.6565ZM139.062 27.5002C139.062 27.6494 139.003 27.7925 138.898 27.898C138.792 28.0035 138.649 28.0627 138.5 28.0627H117.5C117.351 28.0627 117.208 28.0035 117.102 27.898C116.997 27.7925 116.938 27.6494 116.938 27.5002C116.938 27.351 116.997 27.208 117.102 27.1025C117.208 26.997 117.351 26.9377 117.5 26.9377H138.5C138.649 26.9377 138.792 26.997 138.898 27.1025C139.003 27.208 139.062 27.351 139.062 27.5002Z" fill="#B8B8B8"/>
</g>
<g style="mix-blend-mode:luminosity" opacity="0.1">
<rect x="162" width="40" height="40" rx="20" fill="#282828"/>
<rect x="162.5" y="0.5" width="39" height="39" rx="19.5" stroke="black" stroke-opacity="0.2"/>
<path d="M191.487 27.9687C190.005 25.4075 187.678 23.6103 184.974 22.8481C186.288 22.1799 187.34 21.0885 187.958 19.7498C188.576 18.411 188.726 16.9031 188.382 15.4691C188.038 14.0351 187.222 12.7586 186.064 11.8454C184.906 10.9322 183.475 10.4355 182 10.4355C180.526 10.4355 179.094 10.9322 177.936 11.8454C176.778 12.7586 175.962 14.0351 175.618 15.4691C175.275 16.9031 175.424 18.411 176.042 19.7498C176.661 21.0885 177.712 22.1799 179.026 22.8481C176.323 23.6094 173.996 25.4065 172.514 27.9687C172.473 28.0328 172.446 28.1043 172.433 28.1792C172.421 28.2541 172.424 28.3306 172.442 28.4043C172.46 28.478 172.493 28.5473 172.538 28.608C172.584 28.6687 172.641 28.7195 172.707 28.7575C172.772 28.7955 172.845 28.8197 172.92 28.8289C172.996 28.838 173.072 28.8319 173.145 28.8107C173.218 28.7896 173.286 28.7539 173.344 28.7059C173.403 28.6579 173.452 28.5985 173.487 28.5312C175.288 25.4197 178.47 23.5625 182 23.5625C185.531 23.5625 188.713 25.4197 190.514 28.5312C190.549 28.5985 190.597 28.6579 190.656 28.7059C190.715 28.7539 190.782 28.7896 190.855 28.8107C190.928 28.8319 191.005 28.838 191.08 28.8289C191.155 28.8197 191.228 28.7955 191.294 28.7575C191.359 28.7195 191.417 28.6687 191.462 28.608C191.508 28.5473 191.54 28.478 191.558 28.4043C191.576 28.3306 191.579 28.2541 191.567 28.1792C191.555 28.1043 191.527 28.0328 191.487 27.9687ZM176.563 17C176.563 15.9245 176.882 14.8733 177.479 13.9791C178.077 13.0849 178.926 12.3879 179.919 11.9764C180.913 11.5648 182.006 11.4572 183.061 11.667C184.116 11.8768 185.085 12.3946 185.845 13.1551C186.605 13.9155 187.123 14.8844 187.333 15.9392C187.543 16.994 187.435 18.0873 187.024 19.0808C186.612 20.0744 185.915 20.9236 185.021 21.5211C184.127 22.1186 183.076 22.4375 182 22.4375C180.559 22.4357 179.177 21.8623 178.157 20.843C177.138 19.8236 176.564 18.4416 176.563 17Z" fill="#B8B8B8"/>
</g>
<g style="mix-blend-mode:luminosity" opacity="0.1">
<rect x="216" width="40" height="40" rx="20" fill="#282828"/>
<rect x="216.5" y="0.5" width="39" height="39" rx="19.5" stroke="black" stroke-opacity="0.2"/>
<path d="M245.487 27.9687C244.005 25.4075 241.678 23.6103 238.974 22.8481C240.288 22.1799 241.34 21.0885 241.958 19.7498C242.576 18.411 242.726 16.9031 242.382 15.4691C242.038 14.0351 241.222 12.7586 240.064 11.8454C238.906 10.9322 237.475 10.4355 236 10.4355C234.526 10.4355 233.094 10.9322 231.936 11.8454C230.778 12.7586 229.962 14.0351 229.618 15.4691C229.275 16.9031 229.424 18.411 230.042 19.7498C230.661 21.0885 231.712 22.1799 233.026 22.8481C230.323 23.6094 227.996 25.4065 226.514 27.9687C226.473 28.0328 226.446 28.1043 226.433 28.1792C226.421 28.2541 226.424 28.3306 226.442 28.4043C226.46 28.478 226.493 28.5473 226.538 28.608C226.584 28.6687 226.641 28.7195 226.707 28.7575C226.772 28.7955 226.845 28.8197 226.92 28.8289C226.996 28.838 227.072 28.8319 227.145 28.8107C227.218 28.7896 227.286 28.7539 227.344 28.7059C227.403 28.6579 227.452 28.5985 227.487 28.5312C229.288 25.4197 232.47 23.5625 236 23.5625C239.531 23.5625 242.713 25.4197 244.514 28.5312C244.549 28.5985 244.597 28.6579 244.656 28.7059C244.715 28.7539 244.782 28.7896 244.855 28.8107C244.928 28.8319 245.005 28.838 245.08 28.8289C245.155 28.8197 245.228 28.7955 245.294 28.7575C245.359 28.7195 245.417 28.6687 245.462 28.608C245.508 28.5473 245.54 28.478 245.558 28.4043C245.576 28.3306 245.579 28.2541 245.567 28.1792C245.555 28.1043 245.527 28.0328 245.487 27.9687ZM230.563 17C230.563 15.9245 230.882 14.8733 231.479 13.9791C232.077 13.0849 232.926 12.3879 233.919 11.9764C234.913 11.5648 236.006 11.4572 237.061 11.667C238.116 11.8768 239.085 12.3946 239.845 13.1551C240.605 13.9155 241.123 14.8844 241.333 15.9392C241.543 16.994 241.435 18.0873 241.024 19.0808C240.612 20.0744 239.915 20.9236 239.021 21.5211C238.127 22.1186 237.076 22.4375 236 22.4375C234.559 22.4357 233.177 21.8623 232.157 20.843C231.138 19.8236 230.564 18.4416 230.563 17Z" fill="#B8B8B8"/>
</g>
<g style="mix-blend-mode:luminosity" opacity="0.1">
<rect x="270" width="40" height="40" rx="20" fill="#282828"/>
<rect x="270.5" y="0.5" width="39" height="39" rx="19.5" stroke="black" stroke-opacity="0.2"/>
<path d="M280.25 17.5627H282.688V23.9377H281C280.851 23.9377 280.708 23.997 280.602 24.1025C280.497 24.208 280.438 24.351 280.438 24.5002C280.438 24.6494 280.497 24.7925 280.602 24.898C280.708 25.0035 280.851 25.0627 281 25.0627H299C299.149 25.0627 299.292 25.0035 299.398 24.898C299.503 24.7925 299.562 24.6494 299.562 24.5002C299.562 24.351 299.503 24.208 299.398 24.1025C299.292 23.997 299.149 23.9377 299 23.9377H297.312V17.5627H299.75C299.872 17.5626 299.992 17.5226 300.089 17.4487C300.187 17.3748 300.258 17.271 300.291 17.1532C300.324 17.0354 300.318 16.9099 300.274 16.7958C300.229 16.6818 300.149 16.5853 300.044 16.5212L290.294 10.5212C290.206 10.4668 290.104 10.438 290 10.438C289.896 10.438 289.794 10.4668 289.706 10.5212L279.956 16.5212C279.851 16.5853 279.771 16.6818 279.726 16.7958C279.682 16.9099 279.676 17.0354 279.709 17.1532C279.742 17.271 279.813 17.3748 279.911 17.4487C280.008 17.5226 280.128 17.5626 280.25 17.5627ZM283.812 17.5627H287.188V23.9377H283.812V17.5627ZM291.688 17.5627V23.9377H288.312V17.5627H291.688ZM296.188 23.9377H292.812V17.5627H296.188V23.9377ZM290 11.6565L297.763 16.4377H282.238L290 11.6565ZM301.062 27.5002C301.062 27.6494 301.003 27.7925 300.898 27.898C300.792 28.0035 300.649 28.0627 300.5 28.0627H279.5C279.351 28.0627 279.208 28.0035 279.102 27.898C278.997 27.7925 278.938 27.6494 278.938 27.5002C278.938 27.351 278.997 27.208 279.102 27.1025C279.208 26.997 279.351 26.9377 279.5 26.9377H300.5C300.649 26.9377 300.792 26.997 300.898 27.1025C301.003 27.208 301.062 27.351 301.062 27.5002Z" fill="#B8B8B8"/>
</g>
<g style="mix-blend-mode:luminosity">
<rect x="0.5" y="54.5" width="39" height="39" rx="19.5" fill="#282828"/>
<rect x="0.5" y="54.5" width="39" height="39" rx="19.5" stroke="#BDBDBD"/>
<path d="M29.4867 81.9687C28.0045 79.4075 25.6776 77.6103 22.9739 76.8481C24.2884 76.1799 25.3396 75.0885 25.9579 73.7498C26.5762 72.411 26.7256 70.9031 26.382 69.4691C26.0385 68.0351 25.222 66.7586 24.0642 65.8454C22.9064 64.9322 21.4747 64.4355 20.0001 64.4355C18.5255 64.4355 17.0939 64.9322 15.9361 65.8454C14.7783 66.7586 13.9618 68.0351 13.6182 69.4691C13.2747 70.9031 13.4241 72.411 14.0424 73.7498C14.6607 75.0885 15.7119 76.1799 17.0264 76.8481C14.3226 77.6094 11.9958 79.4065 10.5136 81.9687C10.4729 82.0328 10.4456 82.1043 10.4332 82.1792C10.4209 82.2541 10.4239 82.3306 10.4419 82.4043C10.46 82.478 10.4927 82.5473 10.5383 82.608C10.5838 82.6687 10.6411 82.7195 10.7068 82.7575C10.7725 82.7955 10.8451 82.8197 10.9205 82.8289C10.9958 82.838 11.0721 82.8319 11.145 82.8107C11.2179 82.7896 11.2857 82.7539 11.3444 82.7059C11.4031 82.6579 11.4515 82.5985 11.4867 82.5312C13.2876 79.4197 16.4695 77.5625 20.0001 77.5625C23.5308 77.5625 26.7126 79.4197 28.5136 82.5312C28.5487 82.5985 28.5971 82.6579 28.6559 82.7059C28.7146 82.7539 28.7824 82.7896 28.8553 82.8107C28.9281 82.8319 29.0045 82.838 29.0798 82.8289C29.1551 82.8197 29.2278 82.7955 29.2935 82.7575C29.3592 82.7195 29.4165 82.6687 29.462 82.608C29.5075 82.5473 29.5403 82.478 29.5584 82.4043C29.5764 82.3306 29.5794 82.2541 29.567 82.1792C29.5547 82.1043 29.5274 82.0328 29.4867 81.9687ZM14.5626 71C14.5626 69.9245 14.8815 68.8733 15.479 67.9791C16.0765 67.0849 16.9257 66.3879 17.9193 65.9764C18.9129 65.5648 20.0062 65.4572 21.0609 65.667C22.1157 65.8768 23.0846 66.3946 23.845 67.1551C24.6055 67.9155 25.1234 68.8844 25.3332 69.9392C25.543 70.994 25.4353 72.0873 25.0237 73.0808C24.6122 74.0744 23.9152 74.9236 23.0211 75.5211C22.1269 76.1186 21.0756 76.4375 20.0001 76.4375C18.5586 76.4357 17.1765 75.8623 16.1572 74.843C15.1378 73.8236 14.5644 72.4416 14.5626 71Z" fill="#B8B8B8"/>
</g>
<g style="mix-blend-mode:luminosity" opacity="0.1">
<rect x="54" y="54" width="40" height="40" rx="20" fill="#282828"/>
<rect x="54.5" y="54.5" width="39" height="39" rx="19.5" stroke="black" stroke-opacity="0.2"/>
<path d="M64.25 71.5627H66.6875V77.9377H65C64.8508 77.9377 64.7077 77.997 64.6023 78.1025C64.4968 78.208 64.4375 78.351 64.4375 78.5002C64.4375 78.6494 64.4968 78.7925 64.6023 78.898C64.7077 79.0035 64.8508 79.0627 65 79.0627H83C83.1492 79.0627 83.2923 79.0035 83.3977 78.898C83.5032 78.7925 83.5625 78.6494 83.5625 78.5002C83.5625 78.351 83.5032 78.208 83.3977 78.1025C83.2923 77.997 83.1492 77.9377 83 77.9377H81.3125V71.5627H83.75C83.8724 71.5626 83.9915 71.5226 84.0891 71.4487C84.1867 71.3748 84.2576 71.271 84.2909 71.1532C84.3242 71.0354 84.3181 70.9099 84.2736 70.7958C84.2291 70.6818 84.1487 70.5853 84.0444 70.5212L74.2944 64.5212C74.2058 64.4668 74.1039 64.438 74 64.438C73.8961 64.438 73.7942 64.4668 73.7056 64.5212L63.9556 70.5212C63.8513 70.5853 63.7709 70.6818 63.7264 70.7958C63.6819 70.9099 63.6758 71.0354 63.7091 71.1532C63.7424 71.271 63.8133 71.3748 63.9109 71.4487C64.0085 71.5226 64.1276 71.5626 64.25 71.5627ZM67.8125 71.5627H71.1875V77.9377H67.8125V71.5627ZM75.6875 71.5627V77.9377H72.3125V71.5627H75.6875ZM80.1875 77.9377H76.8125V71.5627H80.1875V77.9377ZM74 65.6565L81.7625 70.4377H66.2375L74 65.6565ZM85.0625 81.5002C85.0625 81.6494 85.0032 81.7925 84.8977 81.898C84.7923 82.0035 84.6492 82.0627 84.5 82.0627H63.5C63.3508 82.0627 63.2077 82.0035 63.1023 81.898C62.9968 81.7925 62.9375 81.6494 62.9375 81.5002C62.9375 81.351 62.9968 81.208 63.1023 81.1025C63.2077 80.997 63.3508 80.9377 63.5 80.9377H84.5C84.6492 80.9377 84.7923 80.997 84.8977 81.1025C85.0032 81.208 85.0625 81.351 85.0625 81.5002Z" fill="#B8B8B8"/>
</g>
<rect x="108.5" y="54.5" width="39" height="39" rx="19.5" fill="#282828"/>
<rect x="108.5" y="54.5" width="39" height="39" rx="19.5" fill="#9A599E" fill-opacity="0.34" style="mix-blend-mode:hard-light"/>
<rect x="108.5" y="54.5" width="39" height="39" rx="19.5" stroke="#BDBDBD"/>
<path d="M137.487 81.9687C136.005 79.4075 133.678 77.6103 130.974 76.8481C132.288 76.1799 133.34 75.0885 133.958 73.7498C134.576 72.411 134.726 70.9031 134.382 69.4691C134.038 68.0351 133.222 66.7586 132.064 65.8454C130.906 64.9322 129.475 64.4355 128 64.4355C126.526 64.4355 125.094 64.9322 123.936 65.8454C122.778 66.7586 121.962 68.0351 121.618 69.4691C121.275 70.9031 121.424 72.411 122.042 73.7498C122.661 75.0885 123.712 76.1799 125.026 76.8481C122.323 77.6094 119.996 79.4065 118.514 81.9687C118.473 82.0328 118.446 82.1043 118.433 82.1792C118.421 82.2541 118.424 82.3306 118.442 82.4043C118.46 82.478 118.493 82.5473 118.538 82.608C118.584 82.6687 118.641 82.7195 118.707 82.7575C118.772 82.7955 118.845 82.8197 118.92 82.8289C118.996 82.838 119.072 82.8319 119.145 82.8107C119.218 82.7896 119.286 82.7539 119.344 82.7059C119.403 82.6579 119.452 82.5985 119.487 82.5312C121.288 79.4197 124.47 77.5625 128 77.5625C131.531 77.5625 134.713 79.4197 136.514 82.5312C136.549 82.5985 136.597 82.6579 136.656 82.7059C136.715 82.7539 136.782 82.7896 136.855 82.8107C136.928 82.8319 137.005 82.838 137.08 82.8289C137.155 82.8197 137.228 82.7955 137.294 82.7575C137.359 82.7195 137.417 82.6687 137.462 82.608C137.508 82.5473 137.54 82.478 137.558 82.4043C137.576 82.3306 137.579 82.2541 137.567 82.1792C137.555 82.1043 137.527 82.0328 137.487 81.9687ZM122.563 71C122.563 69.9245 122.882 68.8733 123.479 67.9791C124.077 67.0849 124.926 66.3879 125.919 65.9764C126.913 65.5648 128.006 65.4572 129.061 65.667C130.116 65.8768 131.085 66.3946 131.845 67.1551C132.605 67.9155 133.123 68.8844 133.333 69.9392C133.543 70.994 133.435 72.0873 133.024 73.0808C132.612 74.0744 131.915 74.9236 131.021 75.5211C130.127 76.1186 129.076 76.4375 128 76.4375C126.559 76.4357 125.177 75.8623 124.157 74.843C123.138 73.8236 122.564 72.4416 122.563 71Z" fill="#B8B8B8"/>
<g style="mix-blend-mode:luminosity" opacity="0.1">
<rect x="162" y="54" width="40" height="40" rx="20" fill="#282828"/>
<rect x="162.5" y="54.5" width="39" height="39" rx="19.5" stroke="black" stroke-opacity="0.2"/>
<path d="M191 66.6875H173C172.652 66.6875 172.318 66.8258 172.072 67.0719C171.826 67.3181 171.688 67.6519 171.688 68V80C171.688 80.3481 171.826 80.6819 172.072 80.9281C172.318 81.1742 172.652 81.3125 173 81.3125H191C191.348 81.3125 191.682 81.1742 191.928 80.9281C192.174 80.6819 192.312 80.3481 192.312 80V68C192.312 67.6519 192.174 67.3181 191.928 67.0719C191.682 66.8258 191.348 66.6875 191 66.6875ZM173 67.8125H191C191.05 67.8125 191.097 67.8323 191.133 67.8674C191.168 67.9026 191.188 67.9503 191.188 68V70.4375H172.812V68C172.812 67.9503 172.832 67.9026 172.867 67.8674C172.903 67.8323 172.95 67.8125 173 67.8125ZM191 80.1875H173C172.95 80.1875 172.903 80.1677 172.867 80.1326C172.832 80.0974 172.812 80.0497 172.812 80V71.5625H191.188V80C191.188 80.0497 191.168 80.0974 191.133 80.1326C191.097 80.1677 191.05 80.1875 191 80.1875ZM189.312 77.75C189.312 77.8992 189.253 78.0423 189.148 78.1477C189.042 78.2532 188.899 78.3125 188.75 78.3125H185.75C185.601 78.3125 185.458 78.2532 185.352 78.1477C185.247 78.0423 185.188 77.8992 185.188 77.75C185.188 77.6008 185.247 77.4577 185.352 77.3523C185.458 77.2468 185.601 77.1875 185.75 77.1875H188.75C188.899 77.1875 189.042 77.2468 189.148 77.3523C189.253 77.4577 189.312 77.6008 189.312 77.75ZM183.312 77.75C183.312 77.8992 183.253 78.0423 183.148 78.1477C183.042 78.2532 182.899 78.3125 182.75 78.3125H181.25C181.101 78.3125 180.958 78.2532 180.852 78.1477C180.747 78.0423 180.688 77.8992 180.688 77.75C180.688 77.6008 180.747 77.4577 180.852 77.3523C180.958 77.2468 181.101 77.1875 181.25 77.1875H182.75C182.899 77.1875 183.042 77.2468 183.148 77.3523C183.253 77.4577 183.312 77.6008 183.312 77.75Z" fill="#B8B8B8"/>
</g>
<g style="mix-blend-mode:luminosity" opacity="0.1">
<rect x="216" y="54" width="40" height="40" rx="20" fill="#282828"/>
<rect x="216.5" y="54.5" width="39" height="39" rx="19.5" stroke="black" stroke-opacity="0.2"/>
<path d="M226.25 71.5627H228.688V77.9377H227C226.851 77.9377 226.708 77.997 226.602 78.1025C226.497 78.208 226.438 78.351 226.438 78.5002C226.438 78.6494 226.497 78.7925 226.602 78.898C226.708 79.0035 226.851 79.0627 227 79.0627H245C245.149 79.0627 245.292 79.0035 245.398 78.898C245.503 78.7925 245.562 78.6494 245.562 78.5002C245.562 78.351 245.503 78.208 245.398 78.1025C245.292 77.997 245.149 77.9377 245 77.9377H243.312V71.5627H245.75C245.872 71.5626 245.992 71.5226 246.089 71.4487C246.187 71.3748 246.258 71.271 246.291 71.1532C246.324 71.0354 246.318 70.9099 246.274 70.7958C246.229 70.6818 246.149 70.5853 246.044 70.5212L236.294 64.5212C236.206 64.4668 236.104 64.438 236 64.438C235.896 64.438 235.794 64.4668 235.706 64.5212L225.956 70.5212C225.851 70.5853 225.771 70.6818 225.726 70.7958C225.682 70.9099 225.676 71.0354 225.709 71.1532C225.742 71.271 225.813 71.3748 225.911 71.4487C226.008 71.5226 226.128 71.5626 226.25 71.5627ZM229.812 71.5627H233.188V77.9377H229.812V71.5627ZM237.688 71.5627V77.9377H234.312V71.5627H237.688ZM242.188 77.9377H238.812V71.5627H242.188V77.9377ZM236 65.6565L243.763 70.4377H228.238L236 65.6565ZM247.062 81.5002C247.062 81.6494 247.003 81.7925 246.898 81.898C246.792 82.0035 246.649 82.0627 246.5 82.0627H225.5C225.351 82.0627 225.208 82.0035 225.102 81.898C224.997 81.7925 224.938 81.6494 224.938 81.5002C224.938 81.351 224.997 81.208 225.102 81.1025C225.208 80.997 225.351 80.9377 225.5 80.9377H246.5C246.649 80.9377 246.792 80.997 246.898 81.1025C247.003 81.208 247.062 81.351 247.062 81.5002Z" fill="#B8B8B8"/>
</g>
<g style="mix-blend-mode:luminosity">
<rect x="270.5" y="54.5" width="39" height="39" rx="19.5" fill="#282828"/>
<rect x="270.5" y="54.5" width="39" height="39" rx="19.5" stroke="#BDBDBD"/>
<path d="M299.487 81.9687C298.005 79.4075 295.678 77.6103 292.974 76.8481C294.288 76.1799 295.34 75.0885 295.958 73.7498C296.576 72.411 296.726 70.9031 296.382 69.4691C296.038 68.0351 295.222 66.7586 294.064 65.8454C292.906 64.9322 291.475 64.4355 290 64.4355C288.526 64.4355 287.094 64.9322 285.936 65.8454C284.778 66.7586 283.962 68.0351 283.618 69.4691C283.275 70.9031 283.424 72.411 284.042 73.7498C284.661 75.0885 285.712 76.1799 287.026 76.8481C284.323 77.6094 281.996 79.4065 280.514 81.9687C280.473 82.0328 280.446 82.1043 280.433 82.1792C280.421 82.2541 280.424 82.3306 280.442 82.4043C280.46 82.478 280.493 82.5473 280.538 82.608C280.584 82.6687 280.641 82.7195 280.707 82.7575C280.772 82.7955 280.845 82.8197 280.92 82.8289C280.996 82.838 281.072 82.8319 281.145 82.8107C281.218 82.7896 281.286 82.7539 281.344 82.7059C281.403 82.6579 281.452 82.5985 281.487 82.5312C283.288 79.4197 286.47 77.5625 290 77.5625C293.531 77.5625 296.713 79.4197 298.514 82.5312C298.549 82.5985 298.597 82.6579 298.656 82.7059C298.715 82.7539 298.782 82.7896 298.855 82.8107C298.928 82.8319 299.005 82.838 299.08 82.8289C299.155 82.8197 299.228 82.7955 299.294 82.7575C299.359 82.7195 299.417 82.6687 299.462 82.608C299.508 82.5473 299.54 82.478 299.558 82.4043C299.576 82.3306 299.579 82.2541 299.567 82.1792C299.555 82.1043 299.527 82.0328 299.487 81.9687ZM284.563 71C284.563 69.9245 284.882 68.8733 285.479 67.9791C286.077 67.0849 286.926 66.3879 287.919 65.9764C288.913 65.5648 290.006 65.4572 291.061 65.667C292.116 65.8768 293.085 66.3946 293.845 67.1551C294.605 67.9155 295.123 68.8844 295.333 69.9392C295.543 70.994 295.435 72.0873 295.024 73.0808C294.612 74.0744 293.915 74.9236 293.021 75.5211C292.127 76.1186 291.076 76.4375 290 76.4375C288.559 76.4357 287.177 75.8623 286.157 74.843C285.138 73.8236 284.564 72.4416 284.563 71Z" fill="#B8B8B8"/>
</g>
<g style="mix-blend-mode:luminosity" opacity="0.1">
<rect y="108" width="40" height="40" rx="20" fill="#282828"/>
<rect x="0.5" y="108.5" width="39" height="39" rx="19.5" stroke="black" stroke-opacity="0.2"/>
<path d="M10.25 125.563H12.6875V131.938H11C10.8508 131.938 10.7077 131.997 10.6023 132.102C10.4968 132.208 10.4375 132.351 10.4375 132.5C10.4375 132.649 10.4968 132.792 10.6023 132.898C10.7077 133.003 10.8508 133.063 11 133.063H29C29.1492 133.063 29.2923 133.003 29.3977 132.898C29.5032 132.792 29.5625 132.649 29.5625 132.5C29.5625 132.351 29.5032 132.208 29.3977 132.102C29.2923 131.997 29.1492 131.938 29 131.938H27.3125V125.563H29.75C29.8724 125.563 29.9915 125.523 30.0891 125.449C30.1867 125.375 30.2576 125.271 30.2909 125.153C30.3242 125.035 30.3181 124.91 30.2736 124.796C30.2291 124.682 30.1487 124.585 30.0444 124.521L20.2944 118.521C20.2058 118.467 20.1039 118.438 20 118.438C19.8961 118.438 19.7942 118.467 19.7056 118.521L9.95563 124.521C9.85135 124.585 9.77085 124.682 9.72637 124.796C9.68188 124.91 9.67583 125.035 9.70913 125.153C9.74243 125.271 9.81326 125.375 9.91088 125.449C10.0085 125.523 10.1276 125.563 10.25 125.563ZM13.8125 125.563H17.1875V131.938H13.8125V125.563ZM21.6875 125.563V131.938H18.3125V125.563H21.6875ZM26.1875 131.938H22.8125V125.563H26.1875V131.938ZM20 119.656L27.7625 124.438H12.2375L20 119.656ZM31.0625 135.5C31.0625 135.649 31.0032 135.792 30.8977 135.898C30.7923 136.003 30.6492 136.063 30.5 136.063H9.5C9.35082 136.063 9.20774 136.003 9.10225 135.898C8.99676 135.792 8.9375 135.649 8.9375 135.5C8.9375 135.351 8.99676 135.208 9.10225 135.102C9.20774 134.997 9.35082 134.938 9.5 134.938H30.5C30.6492 134.938 30.7923 134.997 30.8977 135.102C31.0032 135.208 31.0625 135.351 31.0625 135.5Z" fill="#B8B8B8"/>
</g>
<g style="mix-blend-mode:luminosity" opacity="0.1">
<rect x="54" y="108" width="40" height="40" rx="20" fill="#282828"/>
<rect x="54.5" y="108.5" width="39" height="39" rx="19.5" stroke="black" stroke-opacity="0.2"/>
<path d="M64.25 125.563H66.6875V131.938H65C64.8508 131.938 64.7077 131.997 64.6023 132.102C64.4968 132.208 64.4375 132.351 64.4375 132.5C64.4375 132.649 64.4968 132.792 64.6023 132.898C64.7077 133.003 64.8508 133.063 65 133.063H83C83.1492 133.063 83.2923 133.003 83.3977 132.898C83.5032 132.792 83.5625 132.649 83.5625 132.5C83.5625 132.351 83.5032 132.208 83.3977 132.102C83.2923 131.997 83.1492 131.938 83 131.938H81.3125V125.563H83.75C83.8724 125.563 83.9915 125.523 84.0891 125.449C84.1867 125.375 84.2576 125.271 84.2909 125.153C84.3242 125.035 84.3181 124.91 84.2736 124.796C84.2291 124.682 84.1487 124.585 84.0444 124.521L74.2944 118.521C74.2058 118.467 74.1039 118.438 74 118.438C73.8961 118.438 73.7942 118.467 73.7056 118.521L63.9556 124.521C63.8513 124.585 63.7709 124.682 63.7264 124.796C63.6819 124.91 63.6758 125.035 63.7091 125.153C63.7424 125.271 63.8133 125.375 63.9109 125.449C64.0085 125.523 64.1276 125.563 64.25 125.563ZM67.8125 125.563H71.1875V131.938H67.8125V125.563ZM75.6875 125.563V131.938H72.3125V125.563H75.6875ZM80.1875 131.938H76.8125V125.563H80.1875V131.938ZM74 119.656L81.7625 124.438H66.2375L74 119.656ZM85.0625 135.5C85.0625 135.649 85.0032 135.792 84.8977 135.898C84.7923 136.003 84.6492 136.063 84.5 136.063H63.5C63.3508 136.063 63.2077 136.003 63.1023 135.898C62.9968 135.792 62.9375 135.649 62.9375 135.5C62.9375 135.351 62.9968 135.208 63.1023 135.102C63.2077 134.997 63.3508 134.938 63.5 134.938H84.5C84.6492 134.938 84.7923 134.997 84.8977 135.102C85.0032 135.208 85.0625 135.351 85.0625 135.5Z" fill="#B8B8B8"/>
</g>
<g style="mix-blend-mode:luminosity">
<rect x="108.5" y="108.5" width="39" height="39" rx="19.5" fill="#282828"/>
<rect x="108.5" y="108.5" width="39" height="39" rx="19.5" stroke="#BDBDBD"/>
<path d="M137 120.688H119C118.652 120.688 118.318 120.826 118.072 121.072C117.826 121.318 117.688 121.652 117.688 122V134C117.688 134.348 117.826 134.682 118.072 134.928C118.318 135.174 118.652 135.312 119 135.312H137C137.348 135.312 137.682 135.174 137.928 134.928C138.174 134.682 138.312 134.348 138.312 134V122C138.312 121.652 138.174 121.318 137.928 121.072C137.682 120.826 137.348 120.688 137 120.688ZM119 121.812H137C137.05 121.812 137.097 121.832 137.133 121.867C137.168 121.903 137.188 121.95 137.188 122V124.438H118.812V122C118.812 121.95 118.832 121.903 118.867 121.867C118.903 121.832 118.95 121.812 119 121.812ZM137 134.188H119C118.95 134.188 118.903 134.168 118.867 134.133C118.832 134.097 118.812 134.05 118.812 134V125.562H137.188V134C137.188 134.05 137.168 134.097 137.133 134.133C137.097 134.168 137.05 134.188 137 134.188ZM135.312 131.75C135.312 131.899 135.253 132.042 135.148 132.148C135.042 132.253 134.899 132.312 134.75 132.312H131.75C131.601 132.312 131.458 132.253 131.352 132.148C131.247 132.042 131.188 131.899 131.188 131.75C131.188 131.601 131.247 131.458 131.352 131.352C131.458 131.247 131.601 131.188 131.75 131.188H134.75C134.899 131.188 135.042 131.247 135.148 131.352C135.253 131.458 135.312 131.601 135.312 131.75ZM129.312 131.75C129.312 131.899 129.253 132.042 129.148 132.148C129.042 132.253 128.899 132.312 128.75 132.312H127.25C127.101 132.312 126.958 132.253 126.852 132.148C126.747 132.042 126.688 131.899 126.688 131.75C126.688 131.601 126.747 131.458 126.852 131.352C126.958 131.247 127.101 131.188 127.25 131.188H128.75C128.899 131.188 129.042 131.247 129.148 131.352C129.253 131.458 129.312 131.601 129.312 131.75Z" fill="#B8B8B8"/>
</g>
<g style="mix-blend-mode:luminosity" opacity="0.1">
<rect x="162" y="108" width="40" height="40" rx="20" fill="#282828"/>
<rect x="162.5" y="108.5" width="39" height="39" rx="19.5" stroke="black" stroke-opacity="0.2"/>
<path d="M172.25 125.563H174.688V131.938H173C172.851 131.938 172.708 131.997 172.602 132.102C172.497 132.208 172.438 132.351 172.438 132.5C172.438 132.649 172.497 132.792 172.602 132.898C172.708 133.003 172.851 133.063 173 133.063H191C191.149 133.063 191.292 133.003 191.398 132.898C191.503 132.792 191.562 132.649 191.562 132.5C191.562 132.351 191.503 132.208 191.398 132.102C191.292 131.997 191.149 131.938 191 131.938H189.312V125.563H191.75C191.872 125.563 191.992 125.523 192.089 125.449C192.187 125.375 192.258 125.271 192.291 125.153C192.324 125.035 192.318 124.91 192.274 124.796C192.229 124.682 192.149 124.585 192.044 124.521L182.294 118.521C182.206 118.467 182.104 118.438 182 118.438C181.896 118.438 181.794 118.467 181.706 118.521L171.956 124.521C171.851 124.585 171.771 124.682 171.726 124.796C171.682 124.91 171.676 125.035 171.709 125.153C171.742 125.271 171.813 125.375 171.911 125.449C172.008 125.523 172.128 125.563 172.25 125.563ZM175.812 125.563H179.188V131.938H175.812V125.563ZM183.688 125.563V131.938H180.312V125.563H183.688ZM188.188 131.938H184.812V125.563H188.188V131.938ZM182 119.656L189.763 124.438H174.238L182 119.656ZM193.062 135.5C193.062 135.649 193.003 135.792 192.898 135.898C192.792 136.003 192.649 136.063 192.5 136.063H171.5C171.351 136.063 171.208 136.003 171.102 135.898C170.997 135.792 170.938 135.649 170.938 135.5C170.938 135.351 170.997 135.208 171.102 135.102C171.208 134.997 171.351 134.938 171.5 134.938H192.5C192.649 134.938 192.792 134.997 192.898 135.102C193.003 135.208 193.062 135.351 193.062 135.5Z" fill="#B8B8B8"/>
</g>
<g style="mix-blend-mode:luminosity">
<rect x="216.5" y="108.5" width="39" height="39" rx="19.5" fill="#282828"/>
<rect x="216.5" y="108.5" width="39" height="39" rx="19.5" stroke="#BDBDBD"/>
<path d="M245.487 135.969C244.005 133.407 241.678 131.61 238.974 130.848C240.288 130.18 241.34 129.088 241.958 127.75C242.576 126.411 242.726 124.903 242.382 123.469C242.038 122.035 241.222 120.759 240.064 119.845C238.906 118.932 237.475 118.436 236 118.436C234.526 118.436 233.094 118.932 231.936 119.845C230.778 120.759 229.962 122.035 229.618 123.469C229.275 124.903 229.424 126.411 230.042 127.75C230.661 129.088 231.712 130.18 233.026 130.848C230.323 131.609 227.996 133.407 226.514 135.969C226.473 136.033 226.446 136.104 226.433 136.179C226.421 136.254 226.424 136.331 226.442 136.404C226.46 136.478 226.493 136.547 226.538 136.608C226.584 136.669 226.641 136.72 226.707 136.757C226.772 136.795 226.845 136.82 226.92 136.829C226.996 136.838 227.072 136.832 227.145 136.811C227.218 136.79 227.286 136.754 227.344 136.706C227.403 136.658 227.452 136.598 227.487 136.531C229.288 133.42 232.47 131.562 236 131.562C239.531 131.562 242.713 133.42 244.514 136.531C244.549 136.598 244.597 136.658 244.656 136.706C244.715 136.754 244.782 136.79 244.855 136.811C244.928 136.832 245.005 136.838 245.08 136.829C245.155 136.82 245.228 136.795 245.294 136.757C245.359 136.72 245.417 136.669 245.462 136.608C245.508 136.547 245.54 136.478 245.558 136.404C245.576 136.331 245.579 136.254 245.567 136.179C245.555 136.104 245.527 136.033 245.487 135.969ZM230.563 125C230.563 123.925 230.882 122.873 231.479 121.979C232.077 121.085 232.926 120.388 233.919 119.976C234.913 119.565 236.006 119.457 237.061 119.667C238.116 119.877 239.085 120.395 239.845 121.155C240.605 121.916 241.123 122.884 241.333 123.939C241.543 124.994 241.435 126.087 241.024 127.081C240.612 128.074 239.915 128.924 239.021 129.521C238.127 130.119 237.076 130.437 236 130.437C234.559 130.436 233.177 129.862 232.157 128.843C231.138 127.824 230.564 126.442 230.563 125Z" fill="#B8B8B8"/>
</g>
<g style="mix-blend-mode:luminosity" opacity="0.1">
<rect x="270" y="108" width="40" height="40" rx="20" fill="#282828"/>
<rect x="270.5" y="108.5" width="39" height="39" rx="19.5" stroke="black" stroke-opacity="0.2"/>
<path d="M280.25 125.563H282.688V131.938H281C280.851 131.938 280.708 131.997 280.602 132.102C280.497 132.208 280.438 132.351 280.438 132.5C280.438 132.649 280.497 132.792 280.602 132.898C280.708 133.003 280.851 133.063 281 133.063H299C299.149 133.063 299.292 133.003 299.398 132.898C299.503 132.792 299.562 132.649 299.562 132.5C299.562 132.351 299.503 132.208 299.398 132.102C299.292 131.997 299.149 131.938 299 131.938H297.312V125.563H299.75C299.872 125.563 299.992 125.523 300.089 125.449C300.187 125.375 300.258 125.271 300.291 125.153C300.324 125.035 300.318 124.91 300.274 124.796C300.229 124.682 300.149 124.585 300.044 124.521L290.294 118.521C290.206 118.467 290.104 118.438 290 118.438C289.896 118.438 289.794 118.467 289.706 118.521L279.956 124.521C279.851 124.585 279.771 124.682 279.726 124.796C279.682 124.91 279.676 125.035 279.709 125.153C279.742 125.271 279.813 125.375 279.911 125.449C280.008 125.523 280.128 125.563 280.25 125.563ZM283.812 125.563H287.188V131.938H283.812V125.563ZM291.688 125.563V131.938H288.312V125.563H291.688ZM296.188 131.938H292.812V125.563H296.188V131.938ZM290 119.656L297.763 124.438H282.238L290 119.656ZM301.062 135.5C301.062 135.649 301.003 135.792 300.898 135.898C300.792 136.003 300.649 136.063 300.5 136.063H279.5C279.351 136.063 279.208 136.003 279.102 135.898C278.997 135.792 278.938 135.649 278.938 135.5C278.938 135.351 278.997 135.208 279.102 135.102C279.208 134.997 279.351 134.938 279.5 134.938H300.5C300.649 134.938 300.792 134.997 300.898 135.102C301.003 135.208 301.062 135.351 301.062 135.5Z" fill="#B8B8B8"/>
</g>
<g style="mix-blend-mode:luminosity" opacity="0.1">
<rect y="162" width="40" height="40" rx="20" fill="#282828"/>
<rect x="0.5" y="162.5" width="39" height="39" rx="19.5" stroke="black" stroke-opacity="0.2"/>
<path d="M10.25 179.563H12.6875V185.938H11C10.8508 185.938 10.7077 185.997 10.6023 186.102C10.4968 186.208 10.4375 186.351 10.4375 186.5C10.4375 186.649 10.4968 186.792 10.6023 186.898C10.7077 187.003 10.8508 187.063 11 187.063H29C29.1492 187.063 29.2923 187.003 29.3977 186.898C29.5032 186.792 29.5625 186.649 29.5625 186.5C29.5625 186.351 29.5032 186.208 29.3977 186.102C29.2923 185.997 29.1492 185.938 29 185.938H27.3125V179.563H29.75C29.8724 179.563 29.9915 179.523 30.0891 179.449C30.1867 179.375 30.2576 179.271 30.2909 179.153C30.3242 179.035 30.3181 178.91 30.2736 178.796C30.2291 178.682 30.1487 178.585 30.0444 178.521L20.2944 172.521C20.2058 172.467 20.1039 172.438 20 172.438C19.8961 172.438 19.7942 172.467 19.7056 172.521L9.95563 178.521C9.85135 178.585 9.77085 178.682 9.72637 178.796C9.68188 178.91 9.67583 179.035 9.70913 179.153C9.74243 179.271 9.81326 179.375 9.91088 179.449C10.0085 179.523 10.1276 179.563 10.25 179.563ZM13.8125 179.563H17.1875V185.938H13.8125V179.563ZM21.6875 179.563V185.938H18.3125V179.563H21.6875ZM26.1875 185.938H22.8125V179.563H26.1875V185.938ZM20 173.656L27.7625 178.438H12.2375L20 173.656ZM31.0625 189.5C31.0625 189.649 31.0032 189.792 30.8977 189.898C30.7923 190.003 30.6492 190.063 30.5 190.063H9.5C9.35082 190.063 9.20774 190.003 9.10225 189.898C8.99676 189.792 8.9375 189.649 8.9375 189.5C8.9375 189.351 8.99676 189.208 9.10225 189.102C9.20774 188.997 9.35082 188.938 9.5 188.938H30.5C30.6492 188.938 30.7923 188.997 30.8977 189.102C31.0032 189.208 31.0625 189.351 31.0625 189.5Z" fill="#B8B8B8"/>
</g>
<g style="mix-blend-mode:luminosity" opacity="0.1">
<rect x="54" y="162" width="40" height="40" rx="20" fill="#282828"/>
<rect x="54.5" y="162.5" width="39" height="39" rx="19.5" stroke="black" stroke-opacity="0.2"/>
<path d="M83.4867 189.969C82.0045 187.407 79.6776 185.61 76.9739 184.848C78.2884 184.18 79.3396 183.088 79.9579 181.75C80.5762 180.411 80.7256 178.903 80.382 177.469C80.0385 176.035 79.222 174.759 78.0642 173.845C76.9064 172.932 75.4747 172.436 74.0001 172.436C72.5255 172.436 71.0939 172.932 69.9361 173.845C68.7783 174.759 67.9618 176.035 67.6182 177.469C67.2747 178.903 67.4241 180.411 68.0424 181.75C68.6607 183.088 69.7119 184.18 71.0264 184.848C68.3226 185.609 65.9958 187.407 64.5136 189.969C64.4729 190.033 64.4456 190.104 64.4332 190.179C64.4209 190.254 64.4239 190.331 64.4419 190.404C64.46 190.478 64.4927 190.547 64.5383 190.608C64.5838 190.669 64.6411 190.72 64.7068 190.757C64.7725 190.795 64.8451 190.82 64.9205 190.829C64.9958 190.838 65.0721 190.832 65.145 190.811C65.2179 190.79 65.2857 190.754 65.3444 190.706C65.4031 190.658 65.4515 190.598 65.4867 190.531C67.2876 187.42 70.4695 185.562 74.0001 185.562C77.5308 185.562 80.7126 187.42 82.5136 190.531C82.5487 190.598 82.5971 190.658 82.6559 190.706C82.7146 190.754 82.7824 190.79 82.8553 190.811C82.9281 190.832 83.0045 190.838 83.0798 190.829C83.1551 190.82 83.2278 190.795 83.2935 190.757C83.3592 190.72 83.4165 190.669 83.462 190.608C83.5075 190.547 83.5403 190.478 83.5584 190.404C83.5764 190.331 83.5794 190.254 83.567 190.179C83.5547 190.104 83.5274 190.033 83.4867 189.969ZM68.5626 179C68.5626 177.925 68.8815 176.873 69.479 175.979C70.0765 175.085 70.9257 174.388 71.9193 173.976C72.9129 173.565 74.0062 173.457 75.0609 173.667C76.1157 173.877 77.0846 174.395 77.845 175.155C78.6055 175.916 79.1234 176.884 79.3332 177.939C79.543 178.994 79.4353 180.087 79.0237 181.081C78.6122 182.074 77.9152 182.924 77.0211 183.521C76.1269 184.119 75.0756 184.437 74.0001 184.437C72.5586 184.436 71.1765 183.862 70.1572 182.843C69.1378 181.824 68.5644 180.442 68.5626 179Z" fill="#B8B8B8"/>
</g>
<g style="mix-blend-mode:luminosity" opacity="0.1">
<rect x="108" y="162" width="40" height="40" rx="20" fill="#282828"/>
<rect x="108.5" y="162.5" width="39" height="39" rx="19.5" stroke="black" stroke-opacity="0.2"/>
<path d="M118.25 179.563H120.688V185.938H119C118.851 185.938 118.708 185.997 118.602 186.102C118.497 186.208 118.438 186.351 118.438 186.5C118.438 186.649 118.497 186.792 118.602 186.898C118.708 187.003 118.851 187.063 119 187.063H137C137.149 187.063 137.292 187.003 137.398 186.898C137.503 186.792 137.562 186.649 137.562 186.5C137.562 186.351 137.503 186.208 137.398 186.102C137.292 185.997 137.149 185.938 137 185.938H135.312V179.563H137.75C137.872 179.563 137.992 179.523 138.089 179.449C138.187 179.375 138.258 179.271 138.291 179.153C138.324 179.035 138.318 178.91 138.274 178.796C138.229 178.682 138.149 178.585 138.044 178.521L128.294 172.521C128.206 172.467 128.104 172.438 128 172.438C127.896 172.438 127.794 172.467 127.706 172.521L117.956 178.521C117.851 178.585 117.771 178.682 117.726 178.796C117.682 178.91 117.676 179.035 117.709 179.153C117.742 179.271 117.813 179.375 117.911 179.449C118.008 179.523 118.128 179.563 118.25 179.563ZM121.812 179.563H125.188V185.938H121.812V179.563ZM129.688 179.563V185.938H126.312V179.563H129.688ZM134.188 185.938H130.812V179.563H134.188V185.938ZM128 173.656L135.763 178.438H120.238L128 173.656ZM139.062 189.5C139.062 189.649 139.003 189.792 138.898 189.898C138.792 190.003 138.649 190.063 138.5 190.063H117.5C117.351 190.063 117.208 190.003 117.102 189.898C116.997 189.792 116.938 189.649 116.938 189.5C116.938 189.351 116.997 189.208 117.102 189.102C117.208 188.997 117.351 188.938 117.5 188.938H138.5C138.649 188.938 138.792 188.997 138.898 189.102C139.003 189.208 139.062 189.351 139.062 189.5Z" fill="#B8B8B8"/>
</g>
<g style="mix-blend-mode:luminosity" opacity="0.1">
<rect x="162" y="162" width="40" height="40" rx="20" fill="#282828"/>
<rect x="162.5" y="162.5" width="39" height="39" rx="19.5" stroke="black" stroke-opacity="0.2"/>
<path d="M191.487 189.969C190.005 187.407 187.678 185.61 184.974 184.848C186.288 184.18 187.34 183.088 187.958 181.75C188.576 180.411 188.726 178.903 188.382 177.469C188.038 176.035 187.222 174.759 186.064 173.845C184.906 172.932 183.475 172.436 182 172.436C180.526 172.436 179.094 172.932 177.936 173.845C176.778 174.759 175.962 176.035 175.618 177.469C175.275 178.903 175.424 180.411 176.042 181.75C176.661 183.088 177.712 184.18 179.026 184.848C176.323 185.609 173.996 187.407 172.514 189.969C172.473 190.033 172.446 190.104 172.433 190.179C172.421 190.254 172.424 190.331 172.442 190.404C172.46 190.478 172.493 190.547 172.538 190.608C172.584 190.669 172.641 190.72 172.707 190.757C172.772 190.795 172.845 190.82 172.92 190.829C172.996 190.838 173.072 190.832 173.145 190.811C173.218 190.79 173.286 190.754 173.344 190.706C173.403 190.658 173.452 190.598 173.487 190.531C175.288 187.42 178.47 185.562 182 185.562C185.531 185.562 188.713 187.42 190.514 190.531C190.549 190.598 190.597 190.658 190.656 190.706C190.715 190.754 190.782 190.79 190.855 190.811C190.928 190.832 191.005 190.838 191.08 190.829C191.155 190.82 191.228 190.795 191.294 190.757C191.359 190.72 191.417 190.669 191.462 190.608C191.508 190.547 191.54 190.478 191.558 190.404C191.576 190.331 191.579 190.254 191.567 190.179C191.555 190.104 191.527 190.033 191.487 189.969ZM176.563 179C176.563 177.925 176.882 176.873 177.479 175.979C178.077 175.085 178.926 174.388 179.919 173.976C180.913 173.565 182.006 173.457 183.061 173.667C184.116 173.877 185.085 174.395 185.845 175.155C186.605 175.916 187.123 176.884 187.333 177.939C187.543 178.994 187.435 180.087 187.024 181.081C186.612 182.074 185.915 182.924 185.021 183.521C184.127 184.119 183.076 184.437 182 184.437C180.559 184.436 179.177 183.862 178.157 182.843C177.138 181.824 176.564 180.442 176.563 179Z" fill="#B8B8B8"/>
</g>
<g style="mix-blend-mode:luminosity" opacity="0.1">
<rect x="216" y="162" width="40" height="40" rx="20" fill="#282828"/>
<rect x="216.5" y="162.5" width="39" height="39" rx="19.5" stroke="black" stroke-opacity="0.2"/>
<path d="M226.25 179.563H228.688V185.938H227C226.851 185.938 226.708 185.997 226.602 186.102C226.497 186.208 226.438 186.351 226.438 186.5C226.438 186.649 226.497 186.792 226.602 186.898C226.708 187.003 226.851 187.063 227 187.063H245C245.149 187.063 245.292 187.003 245.398 186.898C245.503 186.792 245.562 186.649 245.562 186.5C245.562 186.351 245.503 186.208 245.398 186.102C245.292 185.997 245.149 185.938 245 185.938H243.312V179.563H245.75C245.872 179.563 245.992 179.523 246.089 179.449C246.187 179.375 246.258 179.271 246.291 179.153C246.324 179.035 246.318 178.91 246.274 178.796C246.229 178.682 246.149 178.585 246.044 178.521L236.294 172.521C236.206 172.467 236.104 172.438 236 172.438C235.896 172.438 235.794 172.467 235.706 172.521L225.956 178.521C225.851 178.585 225.771 178.682 225.726 178.796C225.682 178.91 225.676 179.035 225.709 179.153C225.742 179.271 225.813 179.375 225.911 179.449C226.008 179.523 226.128 179.563 226.25 179.563ZM229.812 179.563H233.188V185.938H229.812V179.563ZM237.688 179.563V185.938H234.312V179.563H237.688ZM242.188 185.938H238.812V179.563H242.188V185.938ZM236 173.656L243.763 178.438H228.238L236 173.656ZM247.062 189.5C247.062 189.649 247.003 189.792 246.898 189.898C246.792 190.003 246.649 190.063 246.5 190.063H225.5C225.351 190.063 225.208 190.003 225.102 189.898C224.997 189.792 224.938 189.649 224.938 189.5C224.938 189.351 224.997 189.208 225.102 189.102C225.208 188.997 225.351 188.938 225.5 188.938H246.5C246.649 188.938 246.792 188.997 246.898 189.102C247.003 189.208 247.062 189.351 247.062 189.5Z" fill="#B8B8B8"/>
</g>
<g style="mix-blend-mode:luminosity" opacity="0.1">
<rect x="270" y="162" width="40" height="40" rx="20" fill="#282828"/>
<rect x="270.5" y="162.5" width="39" height="39" rx="19.5" stroke="black" stroke-opacity="0.2"/>
<path d="M299 174.688H281C280.652 174.688 280.318 174.826 280.072 175.072C279.826 175.318 279.688 175.652 279.688 176V188C279.688 188.348 279.826 188.682 280.072 188.928C280.318 189.174 280.652 189.312 281 189.312H299C299.348 189.312 299.682 189.174 299.928 188.928C300.174 188.682 300.312 188.348 300.312 188V176C300.312 175.652 300.174 175.318 299.928 175.072C299.682 174.826 299.348 174.688 299 174.688ZM281 175.812H299C299.05 175.812 299.097 175.832 299.133 175.867C299.168 175.903 299.188 175.95 299.188 176V178.438H280.812V176C280.812 175.95 280.832 175.903 280.867 175.867C280.903 175.832 280.95 175.812 281 175.812ZM299 188.188H281C280.95 188.188 280.903 188.168 280.867 188.133C280.832 188.097 280.812 188.05 280.812 188V179.562H299.188V188C299.188 188.05 299.168 188.097 299.133 188.133C299.097 188.168 299.05 188.188 299 188.188ZM297.312 185.75C297.312 185.899 297.253 186.042 297.148 186.148C297.042 186.253 296.899 186.312 296.75 186.312H293.75C293.601 186.312 293.458 186.253 293.352 186.148C293.247 186.042 293.188 185.899 293.188 185.75C293.188 185.601 293.247 185.458 293.352 185.352C293.458 185.247 293.601 185.188 293.75 185.188H296.75C296.899 185.188 297.042 185.247 297.148 185.352C297.253 185.458 297.312 185.601 297.312 185.75ZM291.312 185.75C291.312 185.899 291.253 186.042 291.148 186.148C291.042 186.253 290.899 186.312 290.75 186.312H289.25C289.101 186.312 288.958 186.253 288.852 186.148C288.747 186.042 288.688 185.899 288.688 185.75C288.688 185.601 288.747 185.458 288.852 185.352C288.958 185.247 289.101 185.188 289.25 185.188H290.75C290.899 185.188 291.042 185.247 291.148 185.352C291.253 185.458 291.312 185.601 291.312 185.75Z" fill="#B8B8B8"/>
</g>
<line x1="40" y1="73" x2="108" y2="73" stroke="#555555" stroke-width="2"/>
<line x1="270" y1="74" x2="148" y2="74" stroke="#555555" stroke-width="2"/>
<path d="M216 129C197 129 188.5 74 148 74" stroke="#555555" stroke-width="2"/>
<line x1="129" y1="40" x2="129" y2="54" stroke="#555555" stroke-width="2"/>
<line x1="129" y1="94" x2="129" y2="108" stroke="#555555" stroke-width="2"/>
</g>
<defs>
<clipPath id="clip0_13404_61890">
<rect width="310" height="202" fill="white"/>
</clipPath>
</defs>
</svg>
